<svg xmlns="http://www.w3.org/2000/svg" viewBox="0 0 105.82 96.66"><title>-icon</title><g id="Layer_2" data-name="Layer 2"><g id="Layer_1-2" data-name="Layer 1"><path d="M0,2.27H13.05L14.56,24h.38C24.58,9.08,39,0,56,0c6.81,0,12.49,1,18.16,3.78l-3.6,13.43c-6.42-2.08-9.83-3-17-3-13.81,0-26.86,7-37.82,26.29v53.7H0Z" style="fill:#eef4f4"/><path d="M90.4,11.23,83.61,23.09v0c5.14,3.94,7.26,10.22,7.58,17.16C47,43.8,29,53.14,29,72.35c0,15.33,13.22,24.31,29.25,24.31,12,0,24.32-6.34,33.66-13.74h.53l1.23,11.63h12.16V42C105.82,27.82,100.74,16.9,90.4,11.23Zm.79,60.94c-9.87,8.1-19.38,12.69-29.07,12.69-9.87,0-18.68-3.88-18.68-13.57C43.44,60,54.54,52.79,91.19,50Z" style="fill:#f20544"/></g></g></svg>