<svg xmlns="http://www.w3.org/2000/svg" viewBox="0 0 441.64 96.66"><title>logo_hr</title><g id="Layer_2" data-name="Layer 2"><g id="Layer_1-2" data-name="Layer 1"><path d="M142.58,59.89h4.62l.53,7.7h.14c3.41-5.29,8.49-8.5,14.52-8.5a13.59,13.59,0,0,1,6.42,1.34l-1.27,4.75a16.24,16.24,0,0,0-6-1.07c-4.89,0-9.51,2.47-13.39,9.3v19h-5.55Z" style="fill:#030f26"/><path d="M177.58,76.08c0-10.57,7.89-17,16.59-17,9.37,0,14.86,6.09,14.86,15.25a23,23,0,0,1-.27,3.35h-27.5V73.41h24.22L204.08,75c0-7.7-3.82-11.51-9.77-11.51S183.06,68,183.06,76.08c0,8.44,5.49,12.72,12.72,12.72a17.73,17.73,0,0,0,9.9-3.08l2,3.61a22.29,22.29,0,0,1-12.58,3.88C185.34,93.21,177.58,86.92,177.58,76.08Z" style="fill:#030f26"/><path d="M229.64,81.5V49.25H218.13V44.77h17.06V81.91c0,4.68,2.55,6.69,6.43,6.69a14.76,14.76,0,0,0,6.09-1.47l1.4,4.14a19.62,19.62,0,0,1-8.7,1.94C233.45,93.21,229.64,89.2,229.64,81.5Z" style="fill:#030f26"/><path d="M258.68,84c0-7.29,6.83-10.84,23.63-12.18-.21-4.41-2.35-8.16-8.64-8.16-4.21,0-8.36,2-11.37,3.88l-2.21-3.75c3.34-2.14,8.83-4.68,14.52-4.68,8.9,0,13.25,5.28,13.25,13.38V92.41h-4.62L282.77,88h-.2c-3.54,2.82-8.23,5.22-12.78,5.22C263.7,93.21,258.68,89.8,258.68,84Zm23.63-.07V75.48c-13.92,1.07-18.14,3.82-18.14,8.1,0,3.68,3.35,5.15,7.09,5.15S278.56,87,282.31,83.91Z" style="fill:#f20544"/><path d="M307.27,79.76V64.37H298V60.22l9.44-.33.73-10.44h4.62V59.89h15.93v4.48H312.82V79.83c0,5.82,1.94,8.83,8.23,8.83a21.37,21.37,0,0,0,7.76-1.47L330,91.27a28.2,28.2,0,0,1-10.17,1.94C310.34,93.21,307.27,87.79,307.27,79.76Z" style="fill:#f20544"/><path d="M354.71,64.37H339.65V59.89h20.62V92.41h-5.56ZM352.5,48.78a4.42,4.42,0,1,1,4.42,4.28A4.19,4.19,0,0,1,352.5,48.78Z" style="fill:#f20544"/><path d="M377.13,59.89h5.69l7.49,18.4q1.9,4.92,3.62,9.64h.26c1.14-3.15,2.21-6.36,3.55-9.64l7.5-18.4h5.35L397.07,92.41h-6.22Z" style="fill:#f20544"/><path d="M435,64.37H420V59.89h20.61V92.41H435Zm-2.2-15.59a4.42,4.42,0,1,1,4.41,4.28A4.18,4.18,0,0,1,432.81,48.78Z" style="fill:#f20544"/><path d="M0,2.27H13.05L14.56,24h.38C24.58,9.08,39,0,56,0c6.81,0,12.49,1,18.16,3.78l-3.6,13.43c-6.42-2.08-9.83-3-17-3-13.81,0-26.86,7-37.82,26.29v53.7H0Z" style="fill:#030f26"/><path d="M90.4,11.23,83.61,23.09v0c5.14,3.94,7.26,10.22,7.58,17.16C47,43.8,29,53.14,29,72.35c0,15.33,13.22,24.31,29.25,24.31,12,0,24.32-6.34,33.66-13.74h.53l1.23,11.63h12.16V42C105.82,27.82,100.74,16.9,90.4,11.23Zm.79,60.94c-9.87,8.1-19.38,12.69-29.07,12.69-9.87,0-18.68-3.88-18.68-13.57C43.44,60,54.54,52.79,91.19,50Z" style="fill:#f20544"/></g></g></svg>