<svg xmlns="http://www.w3.org/2000/svg" viewBox="0 0 163.36 189.52"><title>-logo_sq</title><g id="Layer_2" data-name="Layer 2"><g id="Layer_1-2" data-name="Layer 1"><path d="M3.4,171.69H5.87l.29,4.12h.07A9.15,9.15,0,0,1,14,171.26a7.28,7.28,0,0,1,3.44.72l-.68,2.54a8.8,8.8,0,0,0-3.22-.57c-2.61,0-5.08,1.32-7.16,5v10.17h-3Z" style="fill:#eef4f4"/><path d="M22.12,180.36a8.75,8.75,0,0,1,8.88-9.1c5,0,7.94,3.26,7.94,8.17a12.4,12.4,0,0,1-.14,1.79H24.09v-2.3H37l-.75.83c0-4.12-2-6.16-5.22-6.16s-6,2.44-6,6.77c0,4.51,2.94,6.8,6.81,6.8a9.48,9.48,0,0,0,5.29-1.65l1.08,1.93a11.9,11.9,0,0,1-6.73,2.08C26.27,189.52,22.12,186.15,22.12,180.36Z" style="fill:#eef4f4"/><path d="M50,183.26V166H43.81v-2.39h9.13v19.86c0,2.51,1.36,3.58,3.43,3.58a7.8,7.8,0,0,0,3.26-.79l.75,2.22a10.54,10.54,0,0,1-4.65,1C52,189.52,50,187.37,50,183.26Z" style="fill:#eef4f4"/><path d="M65.5,184.58c0-3.9,3.65-5.8,12.64-6.51-.11-2.37-1.26-4.37-4.62-4.37a12.13,12.13,0,0,0-6.09,2.07l-1.18-2A15.32,15.32,0,0,1,74,171.26c4.76,0,7.09,2.83,7.09,7.16v10.67H78.64l-.25-2.36h-.11a11.72,11.72,0,0,1-6.84,2.79C68.18,189.52,65.5,187.69,65.5,184.58Zm12.64,0V180c-7.45.58-9.7,2-9.7,4.33,0,2,1.78,2.76,3.79,2.76S76.13,186.19,78.14,184.54Z" style="fill:#f20544"/><path d="M91.49,182.32v-8.23H86.55v-2.22l5-.18.4-5.58h2.47v5.58H103v2.4H94.46v8.27c0,3.11,1,4.72,4.4,4.72a11.53,11.53,0,0,0,4.15-.78l.65,2.18a15.28,15.28,0,0,1-5.45,1C93.13,189.52,91.49,186.62,91.49,182.32Z" style="fill:#f20544"/><path d="M116.86,174.09h-8v-2.4h11v17.4h-3Zm-1.18-8.34A2.37,2.37,0,1,1,118,168,2.23,2.23,0,0,1,115.68,165.75Z" style="fill:#f20544"/><path d="M128.85,171.69h3.05l4,9.85q1,2.63,1.94,5.15H138c.61-1.68,1.18-3.4,1.9-5.15l4-9.85h2.86l-7.23,17.4h-3.33Z" style="fill:#f20544"/><path d="M159.81,174.09h-8.05v-2.4h11v17.4h-3Zm-1.18-8.34a2.37,2.37,0,0,1,4.73,0,2.37,2.37,0,0,1-4.73,0Z" style="fill:#f20544"/><path d="M0,3.5H20.12L22.45,37H23c14.88-23,37-37,63.28-37,10.49,0,19.24,1.46,28,5.83l-5.54,20.71c-9.91-3.21-15.16-4.67-26.24-4.67-21.29,0-41.41,10.79-58.32,40.53v82.81H0Z" style="fill:#eef4f4"/><path d="M139.39,17.32,128.93,35.61v0c7.92,6.06,11.18,15.75,11.68,26.44C72.41,67.54,44.7,81.94,44.7,111.55c0,23.64,20.38,37.5,45.1,37.5,18.48,0,37.5-9.78,51.9-21.2h.81l1.91,17.94h18.74v-81C163.16,42.9,155.33,26.06,139.39,17.32Zm1.22,94c-15.21,12.5-29.89,19.56-44.83,19.56-15.21,0-28.8-6-28.8-20.92,0-17.39,17.12-28.53,73.63-32.87Z" style="fill:#f20544"/></g></g></svg>