<svg xmlns="http://www.w3.org/2000/svg" viewBox="0 0 299.06 48.72"><title>text_primary</title><g id="Layer_2" data-name="Layer 2"><g id="Layer_1-2" data-name="Layer 1"><path d="M0,15.39H4.62l.53,7.7h.14c3.41-5.29,8.49-8.5,14.52-8.5a13.59,13.59,0,0,1,6.42,1.34L25,20.68a16.2,16.2,0,0,0-6-1.07c-4.89,0-9.5,2.47-13.39,9.3v19H0Z" style="fill:#eef4f4"/><path d="M35,31.58c0-10.57,7.9-17,16.59-17,9.37,0,14.86,6.09,14.86,15.26a21.66,21.66,0,0,1-.27,3.34H38.68V28.91H62.9l-1.4,1.54c0-7.7-3.82-11.51-9.77-11.51S40.49,23.49,40.49,31.58C40.49,40,46,44.3,53.2,44.3a17.65,17.65,0,0,0,9.9-3.08l2,3.61a22.21,22.21,0,0,1-12.58,3.89C42.76,48.72,35,42.43,35,31.58Z" style="fill:#eef4f4"/><path d="M87.06,37V4.75H75.55V.27H92.62V37.41c0,4.68,2.54,6.69,6.42,6.69a14.76,14.76,0,0,0,6.09-1.47l1.4,4.15a19.75,19.75,0,0,1-8.69,1.94C90.88,48.72,87.06,44.7,87.06,37Z" style="fill:#eef4f4"/><path d="M116.1,39.48c0-7.29,6.83-10.84,23.63-12.18-.2-4.41-2.35-8.16-8.64-8.16-4.21,0-8.36,2-11.37,3.88l-2.21-3.75c3.35-2.14,8.83-4.68,14.52-4.68,8.9,0,13.25,5.28,13.25,13.38V47.91h-4.62l-.46-4.41H140c-3.54,2.81-8.23,5.22-12.78,5.22C121.12,48.72,116.1,45.3,116.1,39.48Zm23.63-.07V31c-13.92,1.07-18.14,3.82-18.14,8.1,0,3.68,3.35,5.15,7.1,5.15S136,42.49,139.73,39.41Z" style="fill:#eef4f4"/><path d="M164.69,35.27V19.87h-9.24V15.73l9.44-.34L165.62,5h4.62V15.39h15.93v4.48H170.24V35.33c0,5.82,1.94,8.84,8.23,8.84a21.46,21.46,0,0,0,7.77-1.48l1.2,4.09a28.37,28.37,0,0,1-10.17,1.94C167.77,48.72,164.69,43.3,164.69,35.27Z" style="fill:#eef4f4"/><path d="M212.13,19.87h-15V15.39h20.61V47.91h-5.56ZM209.92,4.28a4.42,4.42,0,0,1,8.84,0,4.42,4.42,0,0,1-8.84,0Z" style="fill:#eef4f4"/><path d="M234.55,15.39h5.69l7.49,18.4q1.92,4.92,3.62,9.64h.27c1.13-3.15,2.2-6.36,3.54-9.64l7.5-18.4H268L254.49,47.91h-6.22Z" style="fill:#eef4f4"/><path d="M292.44,19.87H277.38V15.39H298V47.91h-5.55ZM290.23,4.28a4.42,4.42,0,0,1,8.83,0,4.42,4.42,0,0,1-8.83,0Z" style="fill:#eef4f4"/></g></g></svg>